# xmcd CD database file
#
# Track frame offsets:
#	150
#	18313
#	38351
#	57321
#	79119
#	93530
#	100118
#
# Disc length: 1734 seconds
#
# Revision: 3
# Processed by: cddbd v1.5.2PL0 Copyright (c) Steve Scherf et al.
# Submitted via: CDex 1.70beta2
#
DISCID=4706c407
DTITLE=Chris Rea - Santo Spirito - The Soundtrack
DYEAR=2011
DGENRE=Blues
TTITLE0=Santo Spirito
TTITLE1=The Truth
TTITLE2=Florence Streets
TTITLE3=Dante's Inferno
TTITLE4=Does Love Count For Nothing
TTITLE5=Forever
TTITLE6=Somewhere Between The Stars
EXTD=YEAR: 2011
EXTT0=
EXTT1=
EXTT2=
EXTT3=
EXTT4=
EXTT5=
EXTT6=
PLAYORDER=
